<?xml version="1.0" standalone="no"?>
<!DOCTYPE svg PUBLIC "-//W3C//DTD SVG 20010904//EN"
 "http://www.w3.org/TR/2001/REC-SVG-20010904/DTD/svg10.dtd">
<svg version="1.0" xmlns="http://www.w3.org/2000/svg"
 width="1920.000000pt" height="1920.000000pt" viewBox="0 0 1920.000000 1920.000000"
 preserveAspectRatio="xMidYMid meet">

<g transform="translate(0.000000,1920.000000) scale(0.100000,-0.100000)"
fill="#000000" stroke="none">
<path d="M4970 14674 c-164 -35 -321 -157 -394 -304 -70 -144 -67 -54 -64
-1718 l3 -1497 23 -67 c29 -85 108 -204 175 -263 73 -64 180 -114 280 -131 71
-12 312 -14 1563 -12 l1479 3 80 27 c181 62 320 204 376 384 l24 79 0 1505 c0
1194 -3 1516 -13 1560 -49 211 -234 391 -447 435 -102 21 -2986 21 -3085 -1z
m2970 -1989 l0 -1425 -1425 0 -1425 0 0 1425 0 1425 1425 0 1425 0 0 -1425z"/>
<path d="M5877 13526 c-102 -28 -185 -117 -207 -219 -7 -37 -10 -243 -8 -654
l3 -599 30 -59 c34 -66 101 -125 165 -144 26 -8 227 -11 662 -11 l625 0 62 31
c65 33 98 67 130 139 20 44 21 64 21 669 0 435 -3 635 -11 661 -19 64 -78 131
-144 165 l-59 30 -610 2 c-479 2 -621 -1 -659 -11z"/>
<path d="M9505 14672 c-35 -11 -67 -33 -107 -73 -88 -87 -90 -99 -86 -501 l3
-333 27 -50 c54 -103 145 -159 258 -159 113 0 204 56 258 159 l27 50 3 333 c4
403 2 414 -87 503 -85 85 -183 109 -296 71z"/>
<path d="M11140 14674 c-209 -44 -393 -226 -442 -434 -10 -44 -13 -366 -13
-1560 l0 -1505 24 -79 c56 -180 195 -322 376 -384 l80 -27 1479 -3 c1251 -2
1492 0 1563 12 100 17 207 67 280 131 67 59 146 178 175 263 l23 67 3 1497 c2
1302 0 1507 -13 1570 -46 225 -226 406 -450 453 -102 21 -2985 21 -3085 -1z
m2970 -1989 l0 -1425 -1425 0 -1425 0 0 1425 0 1425 1425 0 1425 0 0 -1425z"/>
<path d="M12048 13526 c-90 -25 -166 -96 -196 -185 -9 -24 -12 -212 -12 -661
l0 -627 31 -62 c33 -65 67 -98 139 -130 44 -20 64 -21 669 -21 435 0 635 3
661 11 64 19 131 78 165 144 l30 59 0 630 0 631 -28 57 c-32 64 -80 111 -146
142 -45 21 -59 21 -656 23 -470 2 -621 -1 -657 -11z"/>
<path d="M9535 13071 c-83 -22 -154 -80 -196 -161 l-24 -45 0 -685 0 -685 22
-41 c33 -61 70 -101 122 -132 41 -24 56 -27 141 -27 85 0 100 3 141 27 52 31
89 71 122 132 l22 41 0 685 0 685 -27 50 c-50 94 -135 152 -235 160 -32 2 -71
1 -88 -4z"/>
<path d="M9509 10767 c-60 -23 -109 -58 -140 -100 -55 -75 -59 -110 -59 -458
l0 -318 -567 -3 -568 -3 -51 -27 c-211 -111 -211 -405 0 -516 l51 -27 568 -3
567 -3 0 -518 c0 -607 -2 -590 89 -682 85 -85 176 -107 291 -73 41 12 67 29
111 73 96 97 90 -4 87 1312 l-3 1144 -28 57 c-28 57 -72 100 -137 133 -45 24
-163 30 -211 12z"/>
<path d="M4705 9873 c-72 -25 -158 -112 -179 -183 -34 -115 -11 -206 72 -290
95 -94 74 -91 723 -88 l554 3 47 23 c98 48 168 158 168 262 0 104 -70 214
-168 262 l-47 23 -560 2 c-499 2 -565 0 -610 -14z"/>
<path d="M6845 9881 c-131 -34 -219 -147 -219 -281 0 -113 56 -204 159 -258
l50 -27 240 0 c230 0 242 1 287 23 98 48 168 158 168 262 0 104 -70 214 -168
262 -44 22 -60 23 -267 25 -121 1 -233 -2 -250 -6z"/>
<path d="M10482 9871 c-74 -26 -122 -68 -159 -140 -28 -53 -33 -73 -33 -131 0
-128 82 -239 202 -275 44 -13 149 -15 715 -15 l663 0 0 -534 c0 -471 2 -540
17 -585 23 -71 79 -132 152 -165 l59 -26 1194 2 1193 3 55 31 c138 78 186 240
113 384 -32 61 -101 120 -163 139 -27 8 -323 11 -1038 11 l-1001 0 -3 548 c-3
532 -4 548 -24 593 -30 63 -79 116 -138 147 l-51 27 -850 2 c-803 2 -853 2
-903 -16z"/>
<path d="M12887 9876 c-128 -47 -199 -146 -199 -278 0 -115 55 -202 165 -260
40 -22 52 -23 282 -23 234 0 241 1 289 24 67 33 121 91 146 157 53 143 -8 297
-146 365 -47 23 -59 24 -274 26 -172 2 -234 0 -263 -11z"/>
<path d="M14052 9871 c-67 -23 -119 -65 -157 -126 -28 -45 -30 -55 -30 -145 0
-90 2 -100 30 -145 38 -62 101 -110 167 -130 73 -21 354 -21 428 1 75 22 162
109 184 184 34 115 12 206 -73 291 -80 79 -117 89 -330 89 -134 -1 -176 -4
-219 -19z"/>
<path d="M5002 8509 c-209 -31 -393 -189 -465 -398 l-22 -66 -3 -1497 c-2
-1302 0 -1507 13 -1570 46 -225 226 -406 450 -453 105 -22 2975 -22 3080 0
213 44 398 224 447 435 10 44 13 366 13 1560 l0 1505 -24 79 c-56 180 -195
322 -376 384 l-80 27 -1485 1 c-861 1 -1512 -2 -1548 -7z m2938 -1994 l0
-1425 -1425 0 -1425 0 0 1425 0 1425 1425 0 1425 0 0 -1425z"/>
<path d="M5854 7348 c-59 -19 -127 -80 -159 -143 l-30 -59 0 -630 c0 -620 0
-632 21 -677 31 -66 78 -114 142 -146 l57 -28 631 0 630 0 59 30 c66 34 125
101 144 165 8 26 11 227 11 662 l0 625 -31 62 c-33 65 -67 98 -139 130 -44 20
-63 21 -675 20 -393 -1 -642 -5 -661 -11z"/>
<path d="M9472 7269 c-42 -21 -74 -46 -97 -77 -63 -82 -67 -108 -63 -504 l3
-353 27 -51 c52 -100 147 -157 258 -157 111 0 206 58 258 157 26 49 27 57 30
249 l4 197 326 -2 327 -3 5 -1005 5 -1005 23 -47 c59 -120 204 -182 335 -144
80 23 135 70 175 145 l32 63 -2 1187 c-3 1112 -4 1188 -21 1218 -28 52 -76
102 -126 131 l-46 27 -695 3 -696 3 -62 -32z"/>
<path d="M12443 7234 c-23 -9 -65 -35 -91 -59 -154 -138 -119 -381 66 -472
l57 -28 818 -3 817 -3 0 -232 c0 -263 7 -304 65 -380 108 -142 342 -142 450 0
63 82 65 102 65 543 0 459 -2 470 -78 552 -26 28 -65 60 -87 71 l-40 22 -1000
2 c-868 1 -1006 0 -1042 -13z"/>
<path d="M12763 6029 c-94 -18 -181 -90 -213 -177 -19 -49 -20 -78 -20 -407
l0 -354 -337 -3 c-332 -3 -339 -3 -383 -26 -106 -55 -163 -148 -163 -262 0
-114 57 -207 163 -262 l45 -23 1289 -3 c1479 -3 1360 -10 1457 87 44 44 61 70
73 111 34 115 12 206 -73 291 -93 93 -56 89 -832 89 l-668 0 -3 373 c-3 360
-4 373 -25 412 -60 112 -192 177 -310 154z"/>
<path d="M9484 5556 c-63 -29 -120 -85 -148 -145 -20 -43 -21 -65 -24 -344 -4
-363 -1 -380 86 -466 86 -86 177 -109 292 -75 41 12 67 29 111 73 88 88 91
105 87 468 -3 279 -4 301 -24 344 -48 102 -151 169 -264 169 -47 0 -79 -7
-116 -24z"/>
</g>
</svg>
